<!--?xml version="1.0" encoding="utf-8"?-->
<!-- Generator: Adobe Illustrator 18.0.0, SVG Export Plug-In . SVG Version: 6.00 Build 0)  -->

<svg version="1.1" id="_x32_" xmlns="http://www.w3.org/2000/svg" xmlns:xlink="http://www.w3.org/1999/xlink" x="0px" y="0px" viewBox="0 0 512 512" style="width: 256px; height: 256px; opacity: 1;" xml:space="preserve">

<g>
	<path class="st0" d="M492.677,116.686C489.868,64.165,460.716,13.047,386.227,1.734c-46.822-7.102-116.023,9.909-130.228,9.909
		c-14.205,0-83.322-17.012-130.23-9.909C51.282,13.047,22.214,64.165,19.323,116.686c-2.89,53.677,27.004,152.362,75.231,332.635
		c15.607,58.22,37.408,62.68,60.283,62.68c20.644,0,44.76-14.452,53.266-51.283l15.773-90.92
		c5.531-17.508,14.369-32.208,32.123-32.208c17.838,0,26.674,14.699,32.207,32.208l15.689,90.92
		c8.59,36.832,32.703,51.283,53.266,51.283c22.957,0,44.676-4.46,60.283-62.68C465.755,269.047,495.565,170.363,492.677,116.686z
		 M255.999,130.147c-28.16,0-56.32-10.736-77.791-32.207l17.508-17.506c33.279,33.28,87.369,33.28,120.65,0l17.506,17.506
		C312.401,119.411,284.241,130.147,255.999,130.147z"></path>
</g>
</svg>
